<svg width="90" height="80" viewBox="0 0 90 80" fill="none" xmlns="http://www.w3.org/2000/svg">
<path d="M26.25 19.1667C38.9065 19.1667 49.1667 15.4357 49.1667 10.8333C49.1667 6.23096 38.9065 2.5 26.25 2.5C13.5935 2.5 3.33334 6.23096 3.33334 10.8333C3.33334 15.4357 13.5935 19.1667 26.25 19.1667Z" fill="#FFC700" fill-opacity="0.2"/>
<path d="M63.75 44.1667C76.4065 44.1667 86.6667 40.4357 86.6667 35.8333C86.6667 31.231 76.4065 27.5 63.75 27.5C51.0935 27.5 40.8333 31.231 40.8333 35.8333C40.8333 40.4357 51.0935 44.1667 63.75 44.1667Z" fill="#FFC700" fill-opacity="0.2"/>
<path d="M40.8333 35.8333C40.8333 31.231 51.0935 27.5 63.75 27.5C76.4065 27.5 86.6667 31.231 86.6667 35.8333V69.1667C86.6667 73.769 76.4065 77.5 63.75 77.5C51.0935 77.5 40.8333 73.769 40.8333 69.1667V35.8333Z" fill="#FFC700" fill-opacity="0.2"/>
<path d="M26.25 2.5C13.5935 2.5 3.33334 6.23096 3.33334 10.8333V60.8333C3.33334 65.4357 13.5935 69.1667 26.25 69.1667C31.7901 69.1667 36.8711 68.4518 40.8333 67.2619V35.8333C40.8333 33.2455 44.0771 30.9333 49.1667 29.4048V10.8333C49.1667 6.23096 38.9065 2.5 26.25 2.5Z" fill="#FFC700" fill-opacity="0.2"/>
<path d="M49.1667 10.8333C49.1667 15.4357 38.9065 19.1667 26.25 19.1667C13.5935 19.1667 3.33334 15.4357 3.33334 10.8333M49.1667 10.8333C49.1667 6.23096 38.9065 2.5 26.25 2.5C13.5935 2.5 3.33334 6.23096 3.33334 10.8333M49.1667 10.8333V29.4048C44.0771 30.9333 40.8333 33.2455 40.8333 35.8333M3.33334 10.8333V60.8333C3.33334 65.4357 13.5935 69.1667 26.25 69.1667C31.7901 69.1667 36.8711 68.4518 40.8333 67.2619V35.8333M3.33334 27.5C3.33334 32.1024 13.5935 35.8333 26.25 35.8333C31.7901 35.8333 36.8711 35.1185 40.8333 33.9285M3.33334 44.1667C3.33334 48.769 13.5935 52.5 26.25 52.5C31.7901 52.5 36.8711 51.7851 40.8333 50.5952M86.6667 35.8333C86.6667 40.4357 76.4065 44.1667 63.75 44.1667C51.0935 44.1667 40.8333 40.4357 40.8333 35.8333M86.6667 35.8333C86.6667 31.231 76.4065 27.5 63.75 27.5C51.0935 27.5 40.8333 31.231 40.8333 35.8333M86.6667 35.8333V69.1667C86.6667 73.769 76.4065 77.5 63.75 77.5C51.0935 77.5 40.8333 73.769 40.8333 69.1667V35.8333M86.6667 52.5C86.6667 57.1024 76.4065 60.8333 63.75 60.8333C51.0935 60.8333 40.8333 57.1024 40.8333 52.5" stroke="#FFC700" stroke-width="5" stroke-linecap="round" stroke-linejoin="round"/>
</svg>
