<svg width="80" height="82" viewBox="0 0 80 82" fill="none" xmlns="http://www.w3.org/2000/svg">
<path d="M64.1667 79.5C68.8338 79.5 71.1673 79.5 72.9499 78.5917C74.5179 77.7928 75.7928 76.518 76.5917 74.9499C77.5 73.1673 77.5 70.8338 77.5 66.1667V38.6667C77.5 33.9996 77.5 31.666 76.5917 29.8834C75.7928 28.3154 74.5179 27.0406 72.9499 26.2416C71.1673 25.3334 68.8338 25.3334 64.1667 25.3334L15.8333 25.3333C11.1662 25.3333 8.83268 25.3333 7.05008 26.2416C5.48206 27.0406 4.20722 28.3154 3.40828 29.8834C2.5 31.666 2.5 33.9996 2.5 38.6667L2.5 66.1667C2.5 70.8338 2.5 73.1673 3.40828 74.9499C4.20722 76.5179 5.48206 77.7928 7.05008 78.5917C8.83268 79.5 11.1662 79.5 15.8333 79.5H64.1667Z" fill="#FFC700" fill-opacity="0.2"/>
<path d="M60.8333 52.4167C60.8333 53.5673 59.9006 54.5 58.75 54.5C57.5994 54.5 56.6667 53.5673 56.6667 52.4167C56.6667 51.2661 57.5994 50.3333 58.75 50.3333C59.9006 50.3333 60.8333 51.2661 60.8333 52.4167Z" fill="#FFC700" fill-opacity="0.2"/>
<path d="M56.6667 25.3334V10.7527C56.6667 7.28716 56.6667 5.55437 55.9366 4.48949C55.2988 3.55911 54.311 2.92708 53.199 2.73785C51.9262 2.52126 50.3529 3.2474 47.2063 4.69968L10.2459 21.7583C7.43961 23.0535 6.03646 23.7011 5.00877 24.7055C4.10024 25.5934 3.40674 26.6773 2.98127 27.8743C2.5 29.2283 2.5 30.7737 2.5 33.8644V54.5M58.75 52.4167H58.7917M2.5 38.6667L2.5 66.1667C2.5 70.8338 2.5 73.1673 3.40828 74.9499C4.20722 76.5179 5.48206 77.7928 7.05008 78.5917C8.83268 79.5 11.1662 79.5 15.8333 79.5H64.1667C68.8338 79.5 71.1673 79.5 72.9499 78.5917C74.5179 77.7928 75.7928 76.5179 76.5917 74.9499C77.5 73.1673 77.5 70.8338 77.5 66.1667V38.6667C77.5 33.9996 77.5 31.666 76.5917 29.8834C75.7928 28.3154 74.5179 27.0406 72.9499 26.2416C71.1673 25.3334 68.8338 25.3334 64.1667 25.3334L15.8333 25.3333C11.1662 25.3333 8.83268 25.3333 7.05008 26.2416C5.48206 27.0406 4.20722 28.3154 3.40828 29.8834C2.5 31.666 2.5 33.9996 2.5 38.6667ZM60.8333 52.4167C60.8333 53.5673 59.9006 54.5 58.75 54.5C57.5994 54.5 56.6667 53.5673 56.6667 52.4167C56.6667 51.2661 57.5994 50.3333 58.75 50.3333C59.9006 50.3333 60.8333 51.2661 60.8333 52.4167Z" stroke="#FFC700" stroke-width="5" stroke-linecap="round" stroke-linejoin="round"/>
</svg>
